<?xml version="1.0" encoding="UTF-8"?>
<svg id="Layer_1" data-name="Layer 1" xmlns="http://www.w3.org/2000/svg" viewBox="0 0 191.55 311.89">
  <defs>
    <style>
      .cls-1 {
        fill: #2a6688;
      }

      .cls-1, .cls-2, .cls-3, .cls-4, .cls-5, .cls-6, .cls-7, .cls-8, .cls-9, .cls-10, .cls-11, .cls-12 {
        stroke-width: 0px;
      }

      .cls-2 {
        fill: #004e79;
      }

      .cls-3 {
        fill: #3d9fcb;
      }

      .cls-4 {
        fill: #48aae0;
      }

      .cls-5 {
        fill: #0370a6;
      }

      .cls-6 {
        fill: #3988b7;
      }

      .cls-7 {
        fill: #377899;
      }

      .cls-8 {
        fill: #04476a;
      }

      .cls-9 {
        fill: #005d88;
      }

      .cls-10 {
        fill: #0d86b9;
      }

      .cls-11 {
        fill: #414042;
      }

      .cls-12 {
        fill: #4eb9ea;
      }
    </style>
  </defs>
  <path class="cls-5" d="m113.28,190.93s-24.51-18-36.39-40.99c-11.87-22.98-36.39-19.15-36.39-19.15,0,0-5.46.57-5.36-5.36.06-3.83-25.28,40.99,0,61.29,0,0,4.6,4.21,24.13,4.21h54.01Z"/>
  <path class="cls-1" d="m17.1,145.07s10.33-27.57,28.51-44.53c18.18-16.96,8.34-39.02,8.34-39.02,0,0-2.4-4.88,3.58-6.39,3.56-.9-44.36-13.38-56.62,15.49,0,0-2.71,5.38,2.31,23.73,5.02,18.35,13.88,50.72,13.88,50.72Z"/>
  <path class="cls-2" d="m31.26,45.14s29.96-.96,52.68,9.49c22.72,10.45,40.11-7.22,40.11-7.22,0,0,3.4-3.59,7.37.88,2.44,2.74-3.4-46.57-35.29-46.91,0,0-6.1-.46-21.71,11.28-15.61,11.74-43.16,32.47-43.16,32.47Z"/>
  <path class="cls-4" d="m134.62,25.03s7.63,28.33,2.76,52.35,15.87,36.59,15.87,36.59c0,0,4.12,3.34.81,7.23-2.33,2.74,43.62-13.77,36.8-44.24,0,0-.93-5.92-15.62-18.14-14.69-12.22-40.62-33.79-40.62-33.79Z"/>
  <path class="cls-6" d="m184.28,115.59s-24.98,16.55-49.81,19.6c-24.82,3.05-30.33,27.21-30.33,27.21,0,0-1.43,5.03-6.74,3.12-3.45-1.24,27.36,37.84,54.67,21.37,0,0,5.43-2.81,12.54-21.01,7.11-18.19,19.66-50.3,19.66-50.3Z"/>
  <g>
    <path class="cls-8" d="m59.01,209.19c6.58,6.58,9.87,14.48,9.87,23.69s-3.29,17.11-9.87,23.65c-6.58,6.54-14.48,9.83-23.69,9.83s-17.11-3.29-23.65-9.83c-6.54-6.54-9.83-14.44-9.83-23.65s3.29-17.11,9.83-23.69c6.54-6.58,14.44-9.87,23.65-9.87s17.11,3.29,23.69,9.87Zm-37.88,9.42c-3.91,3.95-5.88,8.68-5.88,14.19s1.97,10.28,5.88,14.19c3.91,3.91,8.64,5.88,14.19,5.88s10.24-1.97,14.19-5.88c3.95-3.91,5.92-8.64,5.92-14.19s-1.97-10.24-5.92-14.19c-3.95-3.95-8.68-5.92-14.19-5.92s-10.28,1.97-14.19,5.92Z"/>
    <path class="cls-8" d="m108.31,199.48c4.61,0,8.93.86,13,2.63,4.07,1.77,7.65,4.15,10.74,7.16l-9.46,9.46c-3.99-3.95-8.72-5.92-14.19-5.92s-10.28,1.97-14.19,5.92c-3.91,3.95-5.88,8.68-5.88,14.19s1.97,10.28,5.88,14.19c3.91,3.91,8.64,5.88,14.19,5.88s10.28-1.97,14.23-5.92l9.46,9.46c-3.09,3.04-6.66,5.43-10.73,7.2-4.07,1.77-8.39,2.63-13,2.63-9.21,0-17.11-3.29-23.65-9.83-6.54-6.54-9.83-14.44-9.83-23.65s3.29-17.11,9.83-23.69c6.54-6.58,14.44-9.87,23.65-9.87l-.04.16Z"/>
    <path class="cls-8" d="m153.04,232.8v-19.91h9.91c2.76,0,5.1.99,7.03,2.96,1.93,1.97,2.92,4.32,2.92,7.03s-.99,5.1-2.92,7.03c-1.93,1.93-4.28,2.92-7.03,2.92l-5.93-.04c-.04,4.4,0,8.83-.09,13.24h6.02c6.37,0,11.85-2.26,16.41-6.79,4.57-4.52,6.83-9.99,6.83-16.37s-2.26-11.85-6.83-16.41c-4.56-4.57-10.04-6.83-16.41-6.83h-23.2v66.3h13.28v-13.78c-.05-.09-.09-.19-.08-.33.04-.74.05-1.49.08-2.23v-3.57"/>
  </g>
  <g>
    <path class="cls-11" d="m20.73,273.45v14.64h-.86v-13.75l-5.88,7.42-5.89-7.42v13.75h-.86v-14.64h1.25l5.5,6.93,5.49-6.93h1.25Z"/>
    <path class="cls-11" d="m32.58,273.45l5.51,14.64h-.9l-2.43-6.44h-5.25l-2.47,6.44h-.91l5.58-14.64h.88Zm1.87,7.38l-2.31-6.14-2.32,6.14h4.63Z"/>
    <path class="cls-11" d="m44.69,273.45v14.64h-.86v-14.64h.86Z"/>
    <path class="cls-11" d="m52.66,273.45l10.1,13.63v-13.63h.86v14.64h-1.32l-9.86-13.31v13.31h-.86v-14.64h1.08Z"/>
    <path class="cls-11" d="m74.22,274.28v13.81h-.85v-13.81h-3.85v-.83h8.54v.83h-3.85Z"/>
    <path class="cls-11" d="m91.61,273.45v.83h-6.74v6.08h6.74v.83h-6.74v6.08h6.74v.83h-7.6v-14.64h7.6Z"/>
    <path class="cls-11" d="m99.47,273.45l10.1,13.63v-13.63h.86v14.64h-1.32l-9.86-13.31v13.31h-.86v-14.64h1.08Z"/>
    <path class="cls-11" d="m122.44,273.45l5.51,14.64h-.9l-2.43-6.44h-5.25l-2.47,6.44h-.91l5.58-14.64h.88Zm1.87,7.38l-2.31-6.14-2.32,6.14h4.63Z"/>
    <path class="cls-11" d="m134.64,273.45l10.1,13.63v-13.63h.86v14.64h-1.32l-9.86-13.31v13.31h-.86v-14.64h1.08Z"/>
    <path class="cls-11" d="m164.32,285.75l.66.56c-1.48,1.3-3.23,1.95-5.23,1.95-2.16,0-3.99-.73-5.51-2.19-1.51-1.46-2.27-3.23-2.27-5.3s.76-3.83,2.27-5.29c1.51-1.47,3.35-2.2,5.51-2.2,2,0,3.75.65,5.23,1.96l-.66.56c-1.3-1.11-2.83-1.67-4.58-1.67-1.91,0-3.53.65-4.88,1.95-1.35,1.3-2.02,2.86-2.02,4.7s.67,3.41,2.02,4.71c1.35,1.3,2.98,1.95,4.88,1.95,1.75,0,3.27-.56,4.58-1.67Z"/>
    <path class="cls-11" d="m178.84,273.45v.83h-6.74v6.08h6.74v.83h-6.74v6.08h6.74v.83h-7.6v-14.64h7.6Z"/>
  </g>
  <g>
    <path class="cls-11" d="m13.68,301.05c-1.5-.48-2.71-1.15-3.62-2.03-.91-.88-1.37-1.94-1.37-3.18s.47-2.28,1.42-3.2,2.12-1.38,3.53-1.38,2.58.47,3.57,1.42c.51.49.92,1.17,1.21,2.05l-2.36.88c-.29-.76-.55-1.25-.79-1.47-.48-.47-1.02-.7-1.63-.7s-1.14.23-1.61.68c-.47.45-.71,1.03-.71,1.73s.24,1.28.73,1.77c.5.47,1.19.9,2.07,1.29,1.67.52,3.07,1.33,4.19,2.41,1.29,1.23,1.94,2.69,1.94,4.38s-.64,3.14-1.91,4.37c-1.28,1.23-2.84,1.84-4.69,1.84s-3.44-.63-4.73-1.89c-1.01-.96-1.63-2.21-1.86-3.74l2.53-.88c.16,1.47.59,2.54,1.3,3.21.78.75,1.7,1.12,2.77,1.12s2.02-.39,2.82-1.16c.8-.77,1.2-1.73,1.2-2.87s-.39-2.09-1.18-2.85c-.8-.76-1.73-1.35-2.79-1.78Z"/>
    <path class="cls-11" d="m43.94,294.27c2.11,2.04,3.17,4.46,3.17,7.28s-1.06,5.27-3.17,7.3c-2.11,2.03-4.69,3.05-7.74,3.05s-5.61-1.02-7.72-3.05c-2.11-2.03-3.17-4.47-3.17-7.3s1.06-5.24,3.17-7.28c2.11-2.04,4.68-3.06,7.72-3.06s5.63,1.02,7.74,3.06Zm-7.74-.84c-2.23,0-4.16.79-5.79,2.36-1.63,1.58-2.45,3.49-2.45,5.76s.81,4.21,2.45,5.78c1.63,1.57,3.56,2.36,5.79,2.36s4.18-.79,5.81-2.36c1.63-1.57,2.45-3.5,2.45-5.78s-.82-4.18-2.45-5.76c-1.63-1.58-3.57-2.36-5.81-2.36Z"/>
    <path class="cls-11" d="m53,311.67v-20.18h2.63v17.98h7.52v2.2h-10.16Z"/>
    <path class="cls-11" d="m80.17,291.49h2.63v14.28c-.22,1.58-.93,2.94-2.11,4.08-1.37,1.33-3.06,1.99-5.08,1.99s-3.75-.67-5.14-2.01c-1.39-1.34-2.08-2.93-2.08-4.78v-13.56h2.63v13.56c0,1.29.46,2.38,1.37,3.26.91.88,1.98,1.33,3.22,1.33s2.29-.44,3.19-1.33c.91-.88,1.36-1.97,1.36-3.26v-13.56Z"/>
    <path class="cls-11" d="m95.89,293.69v17.98h-2.62v-17.98h-5.01v-2.2h12.62v2.2h-4.99Z"/>
    <path class="cls-11" d="m109.13,291.49v20.18h-2.63v-20.18h2.63Z"/>
    <path class="cls-11" d="m133.8,294.27c2.11,2.04,3.17,4.46,3.17,7.28s-1.06,5.27-3.17,7.3c-2.11,2.03-4.69,3.05-7.74,3.05s-5.61-1.02-7.72-3.05c-2.11-2.03-3.17-4.47-3.17-7.3s1.06-5.24,3.17-7.28c2.11-2.04,4.68-3.06,7.72-3.06s5.63,1.02,7.74,3.06Zm-7.74-.84c-2.23,0-4.16.79-5.79,2.36-1.63,1.58-2.45,3.49-2.45,5.76s.81,4.21,2.45,5.78c1.63,1.57,3.56,2.36,5.79,2.36s4.18-.79,5.81-2.36c1.63-1.57,2.45-3.5,2.45-5.78s-.82-4.18-2.45-5.76c-1.63-1.58-3.57-2.36-5.81-2.36Z"/>
    <path class="cls-11" d="m145.43,291.49l11.93,16.13v-16.13h2.63v20.18h-2.91l-11.63-15.72v15.72h-2.63v-20.18h2.61Z"/>
    <path class="cls-11" d="m172.39,301.05c-1.5-.48-2.71-1.15-3.62-2.03-.91-.88-1.37-1.94-1.37-3.18s.47-2.28,1.42-3.2,2.12-1.38,3.53-1.38,2.58.47,3.57,1.42c.51.49.92,1.17,1.21,2.05l-2.36.88c-.29-.76-.55-1.25-.79-1.47-.48-.47-1.02-.7-1.63-.7s-1.14.23-1.61.68c-.47.45-.71,1.03-.71,1.73s.24,1.28.73,1.77c.5.47,1.19.9,2.07,1.29,1.67.52,3.07,1.33,4.19,2.41,1.29,1.23,1.94,2.69,1.94,4.38s-.64,3.14-1.91,4.37c-1.28,1.23-2.84,1.84-4.69,1.84s-3.44-.63-4.73-1.89c-1.01-.96-1.63-2.21-1.86-3.74l2.53-.88c.16,1.47.59,2.54,1.3,3.21.78.75,1.7,1.12,2.77,1.12s2.02-.39,2.82-1.16c.8-.77,1.2-1.73,1.2-2.87s-.39-2.09-1.18-2.85c-.8-.76-1.73-1.35-2.79-1.78Z"/>
  </g>
  <path class="cls-7" d="m17.1,145.07s-9.96-56.02-1.84-65.55c8.12-9.53,4.23-15.06,42.28-24.39,0,0-40.23-14.67-56.62,15.49,0,0-4.17,3.48,5.33,34.77,9.5,31.29,10.85,39.68,10.85,39.68Z"/>
  <path class="cls-9" d="m33.05,43.84s47.8-30.87,59.73-27.08c11.93,3.8,15.52-1.93,38.85,29.54,0,0-2.04-42.77-36.2-46.21,0,0-4.82-2.5-30,18.37-25.18,20.88-32.38,25.37-32.38,25.37Z"/>
  <path class="cls-12" d="m135.42,25.69s37.72,38.7,37.4,51.22c-.32,12.52.13,25.44-17.95,44.58,0,0,42.56-12.99,35.99-44.46,0,0,.69-4.52-18.37-20.43-23.88-19.92-37.07-30.91-37.07-30.91Z"/>
  <path class="cls-3" d="m184.28,115.59s-24.69,48.33-36.95,52.36c-12.26,4.04-24.61,8.96-50.22-1.81,0,0,28.48,38,56.43,20.75,0,0,4.12-2.9,13.36-26.32,11.88-30.12,17.38-44.99,17.38-44.99Z"/>
  <path class="cls-10" d="m113.23,191.43s-52.59-6.34-60.84-16.55c-8.25-10.22-18.82-20.18-18.18-49.03,0,0-25.01,41.27,2.81,62.4,0,0,4.2,2.83,29.4,2.57,32.4-.34,46.81.61,46.81.61Z"/>
</svg>